<svg width="20" height="19" viewBox="0 0 20 19" fill="none" xmlns="http://www.w3.org/2000/svg">
<path d="M18.25 0.75H1.75C1.35218 0.75 0.970644 0.908035 0.68934 1.18934C0.408035 1.47064 0.25 1.85218 0.25 2.25V14.25C0.25 14.6478 0.408035 15.0294 0.68934 15.3107C0.970644 15.592 1.35218 15.75 1.75 15.75H7.32812L8.71563 18.0656C8.84911 18.2869 9.0375 18.4699 9.26253 18.597C9.48755 18.724 9.74158 18.7908 10 18.7908C10.2584 18.7908 10.5124 18.724 10.7375 18.597C10.9625 18.4699 11.1509 18.2869 11.2844 18.0656L12.6719 15.75H18.25C18.6478 15.75 19.0294 15.592 19.3107 15.3107C19.592 15.0294 19.75 14.6478 19.75 14.25V2.25C19.75 1.85218 19.592 1.47064 19.3107 1.18934C19.0294 0.908035 18.6478 0.75 18.25 0.75ZM13 10.5H7C6.80109 10.5 6.61032 10.421 6.46967 10.2803C6.32902 10.1397 6.25 9.94891 6.25 9.75C6.25 9.55109 6.32902 9.36032 6.46967 9.21967C6.61032 9.07902 6.80109 9 7 9H13C13.1989 9 13.3897 9.07902 13.5303 9.21967C13.671 9.36032 13.75 9.55109 13.75 9.75C13.75 9.94891 13.671 10.1397 13.5303 10.2803C13.3897 10.421 13.1989 10.5 13 10.5ZM13 7.5H7C6.80109 7.5 6.61032 7.42098 6.46967 7.28033C6.32902 7.13968 6.25 6.94891 6.25 6.75C6.25 6.55109 6.32902 6.36032 6.46967 6.21967C6.61032 6.07902 6.80109 6 7 6H13C13.1989 6 13.3897 6.07902 13.5303 6.21967C13.671 6.36032 13.75 6.55109 13.75 6.75C13.75 6.94891 13.671 7.13968 13.5303 7.28033C13.3897 7.42098 13.1989 7.5 13 7.5Z" fill="black"/>
</svg>
