<svg width="48" height="38" viewBox="0 0 48 38" fill="none" xmlns="http://www.w3.org/2000/svg">
<path d="M40.634 3.38364C37.5747 1.94903 34.294 0.89208 30.8638 0.286719C30.8013 0.275036 30.7389 0.304233 30.7067 0.362629C30.2848 1.12955 29.8175 2.13005 29.4902 2.91644C25.8008 2.35197 22.1304 2.35197 18.5166 2.91644C18.1893 2.11257 17.705 1.12955 17.2811 0.362629C17.249 0.306181 17.1866 0.276984 17.1241 0.286719C13.6958 0.890145 10.4151 1.9471 7.35387 3.38364C7.32737 3.39531 7.30465 3.4148 7.28958 3.44008C1.06678 12.941 -0.6379 22.2085 0.19836 31.361C0.202144 31.4058 0.22674 31.4486 0.260796 31.4759C4.36642 34.5572 8.34341 36.4278 12.2466 37.6677C12.309 37.6872 12.3752 37.6638 12.415 37.6113C13.3383 36.3227 14.1613 34.9641 14.867 33.5353C14.9086 33.4516 14.8688 33.3523 14.7837 33.3192C13.4783 32.8131 12.2352 32.1961 11.0395 31.4953C10.9449 31.4389 10.9373 31.3006 11.0243 31.2345C11.2759 31.0418 11.5276 30.8413 11.7679 30.6388C11.8114 30.6019 11.872 30.5941 11.9231 30.6174C19.7786 34.2827 28.2831 34.2827 36.0459 30.6174C36.097 30.5921 36.1576 30.5999 36.203 30.6369C36.4433 30.8393 36.6949 31.0418 36.9484 31.2345C37.0354 31.3006 37.0298 31.4389 36.9352 31.4953C35.7394 32.2097 34.4964 32.8131 33.189 33.3173C33.1039 33.3504 33.0661 33.4516 33.1077 33.5353C33.8285 34.962 34.6515 36.3207 35.5578 37.6093C35.5957 37.6638 35.6637 37.6872 35.7262 37.6677C39.6483 36.4278 43.6252 34.5572 47.7309 31.4759C47.7668 31.4486 47.7895 31.4077 47.7933 31.363C48.7942 20.7816 46.117 11.5902 40.6964 3.44202C40.6832 3.4148 40.6605 3.39531 40.634 3.38364ZM16.04 25.7881C13.675 25.7881 11.7263 23.5691 11.7263 20.8439C11.7263 18.1188 13.6372 15.8998 16.04 15.8998C18.4617 15.8998 20.3916 18.1383 20.3538 20.8439C20.3538 23.5691 18.4428 25.7881 16.04 25.7881ZM31.9895 25.7881C29.6245 25.7881 27.6758 23.5691 27.6758 20.8439C27.6758 18.1188 29.5867 15.8998 31.9895 15.8998C34.4113 15.8998 36.3411 18.1383 36.3033 20.8439C36.3033 23.5691 34.4113 25.7881 31.9895 25.7881Z" fill="#808080"/>
</svg>
