<svg width="14" height="14" viewBox="0 0 14 14" fill="none" xmlns="http://www.w3.org/2000/svg">
<path d="M13.5002 5.70667L9.84394 9.36292C10.1252 10.1567 10.2439 11.4817 9.01894 13.1129C8.93215 13.2274 8.82212 13.3222 8.6961 13.3911C8.57007 13.4601 8.43089 13.5016 8.28769 13.5129H8.21894C7.95404 13.5118 7.70026 13.4062 7.51269 13.2192L4.50019 10.2067L2.35644 12.3567C2.26087 12.4491 2.13313 12.5007 2.00019 12.5007C1.86725 12.5007 1.73951 12.4491 1.64394 12.3567C1.55005 12.2619 1.49738 12.1338 1.49738 12.0004C1.49738 11.867 1.55005 11.739 1.64394 11.6442L3.79394 9.50042L0.768942 6.47542C0.668595 6.37655 0.590416 6.25747 0.539589 6.12609C0.488763 5.99471 0.466452 5.85402 0.474135 5.71335C0.481819 5.57269 0.519321 5.43527 0.584155 5.3102C0.648989 5.18513 0.739673 5.07528 0.850192 4.98792C2.43769 3.70667 3.95644 3.96292 4.62519 4.16917L8.29394 0.500424C8.4822 0.314922 8.73589 0.210937 9.00019 0.210938C9.26449 0.210937 9.51818 0.314922 9.70644 0.500424L13.5002 4.29417C13.5935 4.38658 13.6676 4.49658 13.7182 4.6178C13.7688 4.73902 13.7948 4.86907 13.7948 5.00042C13.7948 5.13177 13.7688 5.26182 13.7182 5.38305C13.6676 5.50427 13.5935 5.61427 13.5002 5.70667Z" fill="black"/>
</svg>
