<svg width="16" height="16" viewBox="0 0 16 16" fill="none" xmlns="http://www.w3.org/2000/svg">
<path d="M11.0001 10.0002C10.6666 9.99963 10.3364 10.0663 10.0293 10.1963C9.72217 10.3262 9.44439 10.5167 9.21256 10.7564L6.33131 8.90641C6.55622 8.32318 6.55622 7.67715 6.33131 7.09391L9.21256 5.24391C9.61789 5.65844 10.1547 5.91921 10.7311 5.98159C11.3075 6.04396 11.8877 5.90406 12.3723 5.58583C12.8569 5.2676 13.2159 4.79083 13.3877 4.23712C13.5596 3.68341 13.5336 3.08718 13.3143 2.55048C13.095 2.01379 12.696 1.57 12.1856 1.29507C11.6751 1.02014 11.085 0.931159 10.5162 1.04336C9.94741 1.15557 9.43529 1.46198 9.06749 1.91015C8.6997 2.35833 8.49911 2.9204 8.50006 3.50016C8.50106 3.80996 8.55824 4.11701 8.66881 4.40641L5.78756 6.25641C5.44067 5.90003 4.99538 5.65522 4.50861 5.55326C4.02185 5.45131 3.51574 5.49685 3.05499 5.68406C2.59425 5.87127 2.19981 6.19165 1.92212 6.60423C1.64442 7.01681 1.49609 7.50284 1.49609 8.00016C1.49609 8.49749 1.64442 8.98352 1.92212 9.39609C2.19981 9.80867 2.59425 10.1291 3.05499 10.3163C3.51574 10.5035 4.02185 10.549 4.50861 10.4471C4.99538 10.3451 5.44067 10.1003 5.78756 9.74391L8.66881 11.5939C8.55824 11.8833 8.50106 12.1904 8.50006 12.5002C8.50006 12.9946 8.64668 13.478 8.92138 13.8891C9.19608 14.3002 9.58653 14.6206 10.0433 14.8099C10.5002 14.9991 11.0028 15.0486 11.4878 14.9521C11.9727 14.8557 12.4182 14.6176 12.7678 14.2679C13.1175 13.9183 13.3556 13.4728 13.452 12.9879C13.5485 12.5029 13.499 12.0003 13.3098 11.5435C13.1205 11.0866 12.8001 10.6962 12.389 10.4215C11.9779 10.1468 11.4945 10.0002 11.0001 10.0002Z" fill="black"/>
</svg>
