<svg width="48" height="38" viewBox="0 0 48 38" fill="none" xmlns="http://www.w3.org/2000/svg">
<path d="M43.0859 9.46C43.1152 9.87228 43.1152 10.2845 43.1152 10.7006C43.1152 23.3785 33.209 38 15.0952 38V37.9924C9.7443 38 4.50457 36.5067 0 33.6911C0.778062 33.7823 1.56002 33.8279 2.34394 33.8298C6.77831 33.8336 11.0859 32.384 14.5745 29.7146C10.3605 29.6367 6.6652 26.9598 5.37428 23.0517C6.85046 23.3291 8.37148 23.2721 9.82035 22.8865C5.22608 21.9821 1.92078 18.0494 1.92078 13.482V13.3605C3.2897 14.1033 4.82243 14.5156 6.39025 14.5612C2.06313 11.7437 0.729311 6.13521 3.34235 1.75029C8.34223 7.74441 15.7192 11.3884 23.6383 11.7741C22.8446 8.44167 23.9288 4.94969 26.4873 2.60713C30.4536 -1.02544 36.6918 -0.839248 40.4202 3.02321C42.6257 2.59953 44.7396 1.81108 46.674 0.693955C45.9388 2.91491 44.4002 4.8015 42.3449 6.00032C44.2969 5.77613 46.204 5.26697 48 4.48992C46.6779 6.42019 45.0126 8.10159 43.0859 9.46Z" fill="#808080"/>
</svg>
