<svg width="49" height="34" viewBox="0 0 49 34" fill="none" xmlns="http://www.w3.org/2000/svg">
<path d="M47.2499 5.30913C46.9774 4.28232 46.4398 3.34515 45.6911 2.5915C44.9423 1.83784 44.0087 1.29415 42.9837 1.01491C39.2199 0 24.1289 0 24.1289 0C24.1289 0 9.03853 0 5.27535 1.01491C4.2502 1.294 3.31641 1.83762 2.56754 2.59129C1.81868 3.34497 1.28105 4.28222 1.00853 5.30913C0 9.09718 0 17.0003 0 17.0003C0 17.0003 0 24.9054 1.00853 28.6915C1.28109 29.7183 1.81874 30.6555 2.56761 31.409C3.31647 32.1626 4.25025 32.7061 5.27535 32.9851C9.03662 34 24.1289 34 24.1289 34C24.1289 34 39.2199 34 42.9837 32.9851C44.0086 32.7059 44.9422 32.1623 45.6909 31.4088C46.4397 30.6552 46.9773 29.7182 47.2499 28.6915C48.2591 24.9028 48.2591 17.0003 48.2591 17.0003C48.2591 17.0003 48.2591 9.09718 47.2499 5.30913ZM19.1933 24.1754V9.82457L31.807 17.0003L19.1933 24.1754Z" fill="#808080"/>
</svg>
